# xmcd
# Track frame offsets:
# 150
# 19460
# 35551
# 55473
# 77230
# 90112
# 107512
# 128147
# 144936
# 166584
# 180324
# 200116
# 211895
#
# Disc length: 3032 seconds
# Revision: 0
# Processed by: cddbd v1.5.1PL0 Copyright (c) Steve Scherf et al.
# Submitted via: VisiTrax 2.9.10.220 - For more info visit www.synapsa.com
#
DISCID=a60bd60d
DTITLE=Highliners - The Ultimate Country Line Dancing Album - CD3
DYEAR=1900
DGENRE=Line Dancing
TTITLE0=Achey Breaky Heart
TTITLE1=ChattaooChee
TTITLE2=Swingin'
TTITLE3=One More Last Chance
TTITLE4=Born to Boogie
TTITLE5=Guitars, Caillacs
TTITLE6=Trashy Women
TTITLE7=Down At The Twist And Shout
TTITLE8=God Bless Texas
TTITLE9=All My Rowdy Friends
TTITLE10=John Deere Green
TTITLE11=Renegades, Rebels And Rouges
TTITLE12=Elvis And Andy
EXTD=
EXTT0=
EXTT1=
EXTT2=
EXTT3=
EXTT4=
EXTT5=
EXTT6=
EXTT7=
EXTT8=
EXTT9=
EXTT10=
EXTT11=
EXTT12=
PLAYORDER=
